<svg viewBox="0 0 1200 720" xmlns="http://www.w3.org/2000/svg" font-family="system-ui, -apple-system, sans-serif">
  <defs>
    <clipPath id="card-clip"><rect width="148" height="72" rx="4"/></clipPath>
  </defs>

  <!-- Page background -->
  <rect width="1200" height="720" fill="#f3f4f6"/>

  <!-- ── Sidebar ─────────────────────────────────────────────────── -->
  <rect width="168" height="720" fill="#ffffff" stroke="#e5e7eb" stroke-width="0.5"/>

  <!-- Brand -->
  <rect x="12" y="12" width="28" height="28" rx="6" fill="#111827"/>
  <text x="26" y="31" text-anchor="middle" fill="#ffffff" font-size="10" font-weight="600">ST</text>
  <text x="46" y="24" fill="#111827" font-size="11" font-weight="600">StaalTrack</text>
  <text x="46" y="36" fill="#6b7280" font-size="9">Voorraadbeheer</text>

  <!-- Org -->
  <rect x="12" y="50" width="144" height="22" rx="5" fill="#f9fafb" stroke="#e5e7eb" stroke-width="0.5"/>
  <circle cx="22" cy="61" r="3" fill="#22c55e"/>
  <text x="30" y="65" fill="#374151" font-size="10">Van Dijk Staal B.V.</text>

  <!-- Nav groups -->
  <text x="12" y="90" fill="#9ca3af" font-size="9" font-weight="600" letter-spacing="0.05em">MATERIAAL BEHEER</text>
  <rect x="8" y="95" width="152" height="22" rx="5" fill="none"/>
  <text x="28" y="110" fill="#6b7280" font-size="11">Voorraad</text>
  <text x="28" y="128" fill="#6b7280" font-size="11">Binnen boeken</text>
  <text x="28" y="146" fill="#6b7280" font-size="11">Instellingen</text>

  <text x="12" y="166" fill="#9ca3af" font-size="9" font-weight="600" letter-spacing="0.05em">ARTIKELEN</text>
  <text x="28" y="182" fill="#6b7280" font-size="11">Artikelen</text>
  <text x="28" y="200" fill="#6b7280" font-size="11">Relaties</text>

  <text x="12" y="220" fill="#9ca3af" font-size="9" font-weight="600" letter-spacing="0.05em">PRODUCTIE</text>
  <text x="28" y="236" fill="#6b7280" font-size="11">Zaag calculator</text>
  <text x="28" y="254" fill="#6b7280" font-size="11">Reserveringen</text>
  <text x="28" y="272" fill="#6b7280" font-size="11">Zaagflow</text>
  <text x="28" y="290" fill="#6b7280" font-size="11">Projecten</text>

  <!-- Active nav item: Planning -->
  <rect x="8" y="300" width="152" height="24" rx="5" fill="#f0f4ff"/>
  <text x="28" y="316" fill="#2563eb" font-size="11" font-weight="500">Planning</text>
  <rect x="12" y="303" width="3" height="18" rx="1.5" fill="#2563eb"/>

  <!-- User footer -->
  <line x1="0" y1="680" x2="168" y2="680" stroke="#e5e7eb" stroke-width="0.5"/>
  <circle cx="24" cy="700" r="12" fill="#f97316"/>
  <text x="24" y="704" text-anchor="middle" fill="#ffffff" font-size="9" font-weight="600">JV</text>
  <text x="42" y="697" fill="#111827" font-size="11" font-weight="500">Jan de Vries</text>
  <text x="42" y="710" fill="#6b7280" font-size="9">Beheerder</text>

  <!-- ── Topbar ──────────────────────────────────────────────────── -->
  <rect x="168" y="0" width="1032" height="44" fill="#ffffff" stroke="#e5e7eb" stroke-width="0.5"/>
  <text x="184" y="20" fill="#6b7280" font-size="11">Productie</text>
  <text x="220" y="20" fill="#9ca3af" font-size="11">›</text>
  <text x="230" y="20" fill="#111827" font-size="11" font-weight="600">Planning</text>

  <!-- ── Planning header ─────────────────────────────────────────── -->
  <rect x="168" y="44" width="1032" height="52" fill="#f9fafb" stroke="#e5e7eb" stroke-width="0.5"/>

  <!-- Week nav -->
  <rect x="180" y="56" width="20" height="20" rx="4" fill="none" stroke="#d1d5db" stroke-width="0.5"/>
  <text x="190" y="70" text-anchor="middle" fill="#6b7280" font-size="11">‹</text>
  <text x="212" y="72" fill="#111827" font-size="13" font-weight="500">16 jun – 20 jun 2026</text>
  <rect x="342" y="56" width="60" height="20" rx="4" fill="none" stroke="#d1d5db" stroke-width="0.5"/>
  <text x="372" y="70" text-anchor="middle" fill="#6b7280" font-size="11">📅 Vandaag</text>
  <rect x="408" y="56" width="20" height="20" rx="4" fill="none" stroke="#d1d5db" stroke-width="0.5"/>
  <text x="418" y="70" text-anchor="middle" fill="#6b7280" font-size="11">›</text>

  <!-- Stats strip -->
  <g transform="translate(620,52)">
    <rect width="110" height="32" rx="6" fill="#f3f4f6"/>
    <text x="55" y="14" text-anchor="middle" fill="#111827" font-size="15" font-weight="500">5u 20m</text>
    <text x="55" y="27" text-anchor="middle" fill="#9ca3af" font-size="9" letter-spacing="0.05em">INGEPLAND</text>
  </g>
  <g transform="translate(740,52)">
    <rect width="90" height="32" rx="6" fill="#f3f4f6"/>
    <text x="45" y="14" text-anchor="middle" fill="#111827" font-size="15" font-weight="500">49u</text>
    <text x="45" y="27" text-anchor="middle" fill="#9ca3af" font-size="9" letter-spacing="0.05em">CAPACITEIT</text>
  </g>
  <g transform="translate(840,52)">
    <rect width="90" height="32" rx="6" fill="#f3f4f6"/>
    <text x="45" y="14" text-anchor="middle" fill="#d97706" font-size="15" font-weight="500">2</text>
    <text x="45" y="27" text-anchor="middle" fill="#9ca3af" font-size="9" letter-spacing="0.05em">AT RISK</text>
  </g>
  <g transform="translate(940,52)">
    <rect width="90" height="32" rx="6" fill="#f3f4f6"/>
    <text x="45" y="14" text-anchor="middle" fill="#111827" font-size="15" font-weight="500">1</text>
    <text x="45" y="27" text-anchor="middle" fill="#9ca3af" font-size="9" letter-spacing="0.05em">ONGEPLAND</text>
  </g>

  <!-- ── Body ───────────────────────────────────────────────────── -->

  <!-- Backlog sidebar -->
  <rect x="168" y="96" width="176" height="624" fill="#ffffff" stroke="#e5e7eb" stroke-width="0.5"/>
  <text x="180" y="116" fill="#6b7280" font-size="10" font-weight="600" letter-spacing="0.05em">TE PLANNEN (1)</text>
  <!-- Backlog card -->
  <rect x="180" y="124" width="152" height="58" rx="4" fill="#f9fafb" stroke="#e5e7eb" stroke-width="0.5"/>
  <rect x="180" y="124" width="3" height="58" rx="1" fill="#9333ea"/>
  <text x="192" y="140" fill="#111827" font-size="11" font-weight="500">Afwerken</text>
  <text x="316" y="140" text-anchor="end" fill="#6b7280" font-size="10">~3u</text>
  <text x="192" y="156" fill="#9ca3af" font-size="10">PROD-003 · Behuizing</text>

  <!-- ── Board ────────────────────────────────────────────────────── -->
  <!-- Board background -->
  <rect x="344" y="96" width="856" height="624" fill="#ffffff"/>

  <!-- Column headers -->
  <rect x="344" y="96" width="100" height="36" fill="#f9fafb" stroke="#e5e7eb" stroke-width="0.5"/>
  <rect x="444" y="96" width="171" height="36" fill="#f9fafb" stroke="#e5e7eb" stroke-width="0.5"/>
  <text x="529" y="118" text-anchor="middle" fill="#374151" font-size="11" font-weight="500">MA 16 JUN</text>
  <!-- Today column header -->
  <rect x="615" y="96" width="171" height="36" fill="#eff6ff" stroke="#e5e7eb" stroke-width="0.5"/>
  <text x="700" y="118" text-anchor="middle" fill="#2563eb" font-size="11" font-weight="600">DI 17 JUN</text>
  <rect x="786" y="96" width="171" height="36" fill="#f9fafb" stroke="#e5e7eb" stroke-width="0.5"/>
  <text x="871" y="118" text-anchor="middle" fill="#374151" font-size="11" font-weight="500">WO 18 JUN</text>
  <rect x="957" y="96" width="121" height="36" fill="#f9fafb" stroke="#e5e7eb" stroke-width="0.5"/>
  <text x="1017" y="118" text-anchor="middle" fill="#374151" font-size="11" font-weight="500">DO 19 JUN</text>
  <rect x="1078" y="96" width="122" height="36" fill="#f9fafb" stroke="#e5e7eb" stroke-width="0.5"/>
  <text x="1139" y="118" text-anchor="middle" fill="#374151" font-size="11" font-weight="500">VR 20 JUN</text>

  <!-- DMG row label -->
  <rect x="344" y="132" width="100" height="186" fill="#fafafa" stroke="#e5e7eb" stroke-width="0.5"/>
  <text x="394" y="232" text-anchor="middle" fill="#374151" font-size="11" font-weight="500">DMG</text>

  <!-- DMG / MA 16 JUN — two cards, near-full capacity -->
  <rect x="444" y="132" width="171" height="186" fill="#ffffff" stroke="#e5e7eb" stroke-width="0.5"/>
  <!-- Card 1 -->
  <rect x="452" y="140" width="155" height="62" rx="4" fill="#f9fafb" stroke="#e5e7eb" stroke-width="0.5"/>
  <rect x="452" y="140" width="3" height="62" rx="1" fill="#2d6df6"/>
  <text x="462" y="156" fill="#111827" font-size="11" font-weight="500">Zagen</text>
  <text x="600" y="156" text-anchor="end" fill="#6b7280" font-size="10">1u 45m</text>
  <text x="462" y="170" fill="#9ca3af" font-size="10">PROD-001 · Van Dijk Hydr.</text>
  <rect x="462" y="180" width="40" height="14" rx="3" fill="#dcfce7"/>
  <text x="482" y="191" text-anchor="middle" fill="#15803d" font-size="9">9d</text>
  <!-- Card 2 -->
  <rect x="452" y="210" width="155" height="62" rx="4" fill="#f9fafb" stroke="#e5e7eb" stroke-width="0.5"/>
  <rect x="452" y="210" width="3" height="62" rx="1" fill="#9333ea"/>
  <text x="462" y="226" fill="#111827" font-size="11" font-weight="500">Lassen</text>
  <text x="600" y="226" text-anchor="end" fill="#9ca3af" font-size="10">~3u</text>
  <text x="462" y="240" fill="#9ca3af" font-size="10">PROD-003 · Behuizing</text>
  <rect x="462" y="250" width="56" height="14" rx="3" fill="#fee2e2"/>
  <text x="490" y="261" text-anchor="middle" fill="#991b1b" font-size="9">⚠ 1d te laat</text>
  <!-- Cap bar -->
  <rect x="452" y="284" width="155" height="4" rx="2" fill="#e5e7eb"/>
  <rect x="452" y="284" width="150" height="4" rx="2" fill="#d97706"/>
  <text x="607" y="300" text-anchor="end" fill="#d97706" font-size="9">4u 45m / 4u 54m eff  ⚠ +0u 9m</text>

  <!-- DMG / DI 17 JUN (today) — two cards, half full -->
  <rect x="615" y="132" width="171" height="186" fill="#f8faff" stroke="#bfdbfe" stroke-width="0.5"/>
  <rect x="623" y="140" width="155" height="62" rx="4" fill="#f9fafb" stroke="#e5e7eb" stroke-width="0.5"/>
  <rect x="623" y="140" width="3" height="62" rx="1" fill="#2d6df6"/>
  <text x="633" y="156" fill="#111827" font-size="11" font-weight="500">Frezen</text>
  <text x="771" y="156" text-anchor="end" fill="#6b7280" font-size="10">1u 45m</text>
  <text x="633" y="170" fill="#9ca3af" font-size="10">PROD-001 · Van Dijk Hydr.</text>
  <rect x="633" y="180" width="40" height="14" rx="3" fill="#dcfce7"/>
  <text x="653" y="191" text-anchor="middle" fill="#15803d" font-size="9">8d</text>
  <rect x="623" y="210" width="155" height="62" rx="4" fill="#f9fafb" stroke="#e5e7eb" stroke-width="0.5"/>
  <rect x="623" y="210" width="3" height="62" rx="1" fill="#16a34a"/>
  <text x="633" y="226" fill="#111827" font-size="11" font-weight="500">Slijpen</text>
  <text x="771" y="226" text-anchor="end" fill="#6b7280" font-size="10">40m</text>
  <text x="633" y="240" fill="#9ca3af" font-size="10">PROD-002 · Spindel batch</text>
  <rect x="633" y="250" width="40" height="14" rx="3" fill="#dcfce7"/>
  <text x="653" y="261" text-anchor="middle" fill="#15803d" font-size="9">13d</text>
  <rect x="623" y="284" width="155" height="4" rx="2" fill="#e5e7eb"/>
  <rect x="623" y="284" width="80" height="4" rx="2" fill="#16a34a"/>
  <text x="778" y="300" text-anchor="end" fill="#6b7280" font-size="9">2u 25m / 4u 54m eff</text>

  <!-- DMG / WO — empty -->
  <rect x="786" y="132" width="171" height="186" fill="#ffffff" stroke="#e5e7eb" stroke-width="0.5"/>
  <!-- DMG / DO — empty -->
  <rect x="957" y="132" width="121" height="186" fill="#ffffff" stroke="#e5e7eb" stroke-width="0.5"/>
  <!-- DMG / VR — empty -->
  <rect x="1078" y="132" width="122" height="186" fill="#ffffff" stroke="#e5e7eb" stroke-width="0.5"/>

  <!-- Doosan row label -->
  <rect x="344" y="318" width="100" height="180" fill="#fafafa" stroke="#e5e7eb" stroke-width="0.5"/>
  <text x="394" y="412" text-anchor="middle" fill="#374151" font-size="11" font-weight="500">Doosan</text>

  <!-- Doosan / MA — one card -->
  <rect x="444" y="318" width="171" height="180" fill="#ffffff" stroke="#e5e7eb" stroke-width="0.5"/>
  <rect x="452" y="326" width="155" height="62" rx="4" fill="#f9fafb" stroke="#e5e7eb" stroke-width="0.5"/>
  <rect x="452" y="326" width="3" height="62" rx="1" fill="#16a34a"/>
  <text x="462" y="342" fill="#111827" font-size="11" font-weight="500">Draaien</text>
  <text x="600" y="342" text-anchor="end" fill="#6b7280" font-size="10">1u 20m</text>
  <text x="462" y="356" fill="#9ca3af" font-size="10">PROD-002 · Spindel batch</text>
  <rect x="462" y="366" width="40" height="14" rx="3" fill="#dcfce7"/>
  <text x="482" y="377" text-anchor="middle" fill="#15803d" font-size="9">14d</text>
  <rect x="452" y="468" width="155" height="4" rx="2" fill="#e5e7eb"/>
  <rect x="452" y="468" width="42" height="4" rx="2" fill="#16a34a"/>
  <text x="607" y="484" text-anchor="end" fill="#6b7280" font-size="9">1u 20m / 4u 54m eff</text>

  <!-- Doosan / DI (today) — one card -->
  <rect x="615" y="318" width="171" height="180" fill="#f8faff" stroke="#bfdbfe" stroke-width="0.5"/>
  <rect x="623" y="326" width="155" height="62" rx="4" fill="#f9fafb" stroke="#e5e7eb" stroke-width="0.5"/>
  <rect x="623" y="326" width="3" height="62" rx="1" fill="#2d6df6"/>
  <text x="633" y="342" fill="#111827" font-size="11" font-weight="500">Draaien</text>
  <text x="771" y="342" text-anchor="end" fill="#6b7280" font-size="10">1u 45m</text>
  <text x="633" y="356" fill="#9ca3af" font-size="10">PROD-001 · Van Dijk Hydr.</text>
  <rect x="633" y="366" width="56" height="14" rx="3" fill="#fef9c3"/>
  <text x="661" y="377" text-anchor="middle" fill="#854d0e" font-size="9">7d voor deadline</text>
  <rect x="623" y="468" width="155" height="4" rx="2" fill="#e5e7eb"/>
  <rect x="623" y="468" width="54" height="4" rx="2" fill="#16a34a"/>
  <text x="778" y="484" text-anchor="end" fill="#6b7280" font-size="9">1u 45m / 4u 54m eff</text>

  <!-- Doosan / WO, DO, VR empty -->
  <rect x="786" y="318" width="171" height="180" fill="#ffffff" stroke="#e5e7eb" stroke-width="0.5"/>
  <rect x="957" y="318" width="121" height="180" fill="#ffffff" stroke="#e5e7eb" stroke-width="0.5"/>
  <rect x="1078" y="318" width="122" height="180" fill="#ffffff" stroke="#e5e7eb" stroke-width="0.5"/>

  <!-- Geen machine row -->
  <rect x="344" y="498" width="100" height="80" fill="#fafafa" stroke="#e5e7eb" stroke-width="0.5"/>
  <text x="394" y="542" text-anchor="middle" fill="#9ca3af" font-size="10">Geen machine</text>
  <rect x="444" y="498" width="171" height="80" fill="#ffffff" stroke="#e5e7eb" stroke-width="0.5"/>
  <rect x="615" y="498" width="171" height="80" fill="#f8faff" stroke="#bfdbfe" stroke-width="0.5"/>
  <rect x="786" y="498" width="171" height="80" fill="#ffffff" stroke="#e5e7eb" stroke-width="0.5"/>
  <rect x="957" y="498" width="121" height="80" fill="#ffffff" stroke="#e5e7eb" stroke-width="0.5"/>
  <rect x="1078" y="498" width="122" height="80" fill="#ffffff" stroke="#e5e7eb" stroke-width="0.5"/>

  <!-- Legend / footer note -->
  <rect x="168" y="590" width="1032" height="130" fill="#f9fafb" stroke="#e5e7eb" stroke-width="0.5"/>
  <text x="184" y="612" fill="#6b7280" font-size="10" font-weight="600" letter-spacing="0.04em">LEGEND</text>

  <rect x="184" y="622" width="3" height="36" rx="1" fill="#2d6df6"/>
  <rect x="184" y="622" width="100" height="36" rx="0 4 4 0" fill="#f3f4f6" stroke="#e5e7eb" stroke-width="0.5"/>
  <text x="193" y="637" fill="#111827" font-size="10">Project accent</text>
  <text x="193" y="650" fill="#9ca3af" font-size="9">color per project</text>

  <rect x="310" y="628" width="40" height="10" rx="2" fill="#dcfce7"/>
  <text x="330" y="637" text-anchor="middle" fill="#15803d" font-size="9">on time</text>
  <rect x="360" y="628" width="60" height="10" rx="2" fill="#fef9c3"/>
  <text x="390" y="637" text-anchor="middle" fill="#854d0e" font-size="9">near deadline</text>
  <rect x="430" y="628" width="60" height="10" rx="2" fill="#fee2e2"/>
  <text x="460" y="637" text-anchor="middle" fill="#991b1b" font-size="9">past deadline</text>
  <text x="310" y="656" fill="#6b7280" font-size="9">Deadline badge colors</text>

  <rect x="560" y="628" width="100" height="6" rx="3" fill="#e5e7eb"/>
  <rect x="560" y="628" width="52" height="6" rx="3" fill="#16a34a"/>
  <text x="560" y="648" fill="#6b7280" font-size="9">Capacity bar (green=ok, amber=near full, red=over)</text>

  <text x="800" y="637" fill="#9ca3af" font-size="9">~3u = placeholder (no estimate linked)</text>
  <text x="800" y="652" fill="#9ca3af" font-size="9">Drag cards between cells to reschedule</text>
</svg>
